<svg xmlns="http://www.w3.org/2000/svg" width="15" height="15" viewBox="0 0 15 15">
    <path fill="#FFF" fill-rule="evenodd" d="M11.886 1.54l-2.82 2.806L.98 1.858c-.16-.04-.33 0-.46.11l-.45.447c-.09.08-.09.21-.02.299.02.02.04.03.06.04l6.518 4.02-2.4 2.389c-.38.368-.72.776-1.019 1.214l-1.82-.498a.523.523 0 0 0-.46.12l-.349.348c-.1.08-.1.229-.02.328l.04.04L2.46 12.1l.06.05-.02.049c-.18.368-.12.428.25.249l.05-.02c.02.02.03.04.05.06l1.389 1.85c.07.1.22.13.32.06.01-.01.03-.02.04-.03l.35-.348c.11-.13.16-.298.12-.458l-.5-1.81a7.94 7.94 0 0 0 1.219-1.016l2.4-2.388 4.008 6.438c.06.1.18.14.28.08.02-.01.04-.03.06-.04l.45-.448c.11-.119.15-.298.11-.457l-2.49-7.992 2.84-2.826C14.993 1.56 15.193.465 14.864.137c-.33-.329-1.43-.14-2.98 1.403z"/>
</svg>
