<svg xmlns="http://www.w3.org/2000/svg" width="13" height="16" viewBox="0 0 13 16">
    <path fill="#777" fill-rule="evenodd" d="M8.556 0c1.056 0 1.921.88 1.921 1.954v1.078c0 .287-.23.52-.512.52h-.722a.516.516 0 0 1-.512-.52v-.767a.486.486 0 0 0-.48-.489H2.226c-.264 0-.48.22-.48.489v11.47c0 .269.216.488.48.488h6.025c.264 0 .48-.22.48-.488v-.767c0-.288.229-.52.512-.52h.722c.283 0 .512.232.512.52v1.078c0 1.075-.864 1.954-1.92 1.954H1.92C.865 16 0 15.12 0 14.046V1.954C0 .879.864 0 1.92 0h6.636zm4.16 8.668l-2.384 2.426a.857.857 0 0 1-1.223 0 .893.893 0 0 1 0-1.245l.94-.954H6.082a.875.875 0 0 1-.864-.88c0-.483.389-.894.864-.894h3.966l-.94-.94a.893.893 0 0 1 0-1.244.857.857 0 0 1 1.223 0l2.379 2.419a.881.881 0 0 1 .289.618V8.06l-.001.01v.006l-.002.014v.007a.88.88 0 0 1-.28.571z"/>
</svg>
