<svg xmlns="http://www.w3.org/2000/svg" width="13" height="16" viewBox="0 0 13 16">
    <path fill="#777" fill-rule="evenodd" d="M4.444 0C3.388 0 2.523.88 2.523 1.954v1.078c0 .287.23.52.512.52h.722a.516.516 0 0 0 .512-.52v-.767c0-.269.216-.489.48-.489h6.025c.264 0 .48.22.48.489v11.47c0 .269-.216.488-.48.488H4.749a.486.486 0 0 1-.48-.488v-.767c0-.288-.229-.52-.512-.52h-.722a.516.516 0 0 0-.512.52v1.078c0 1.075.864 1.954 1.92 1.954h6.636C12.135 16 13 15.12 13 14.046V1.954C13 .879 12.136 0 11.08 0H4.443zM.284 8.668l2.384 2.426a.857.857 0 0 0 1.223 0 .893.893 0 0 0 0-1.245l-.94-.954h3.966a.875.875 0 0 0 .864-.88c0-.483-.389-.894-.864-.894H2.95l.94-.94a.893.893 0 0 0 0-1.244.857.857 0 0 0-1.223 0L.289 7.356A.881.881 0 0 0 0 7.974V8.06l.001.01v.006l.002.014v.007a.88.88 0 0 0 .28.571z"/>
</svg>
