<svg xmlns="http://www.w3.org/2000/svg" width="18" height="15" viewBox="0 0 18 15">
    <path fill="#FFF" fill-rule="evenodd" d="M17.078 4.134a.93.93 0 0 0-.924.943V8.63H1.86V.93C1.86.412 1.44 0 .936 0A.946.946 0 0 0 0 .93v13.14c0 .519.42.93.924.93a.936.936 0 0 0 .924-.93v-1.947h14.294v1.946c0 .52.42.931.924.931a.936.936 0 0 0 .924-.93V5.076a.913.913 0 0 0-.912-.943zM4.524 2.49c.889 0 1.609.725 1.609 1.632 0 .906-.72 1.631-1.609 1.631a1.617 1.617 0 0 1-1.608-1.631c0-.907.72-1.632 1.608-1.632zm10.73 2.985c0-.858-.684-1.57-1.549-1.57H6.961v3.903h8.28l.013-2.333zm-9.061.847H3.696a.746.746 0 0 0-.768.737v.737h3.265V6.322z"/>
</svg>
